<svg width="1351" height="937" viewBox="0 0 1351 937" fill="none" xmlns="http://www.w3.org/2000/svg">
<path d="M1350.94 833.722H0V834.397H1350.94V833.722Z" fill="#EBEBEB"/>
<path d="M1215.58 877.194H1126.09V877.87H1215.58V877.194Z" fill="#EBEBEB"/>
<path d="M894.919 884.544H871.44V885.22H894.919V884.544Z" fill="#EBEBEB"/>
<path d="M1123.39 852.121H1071.54V852.797H1123.39V852.121Z" fill="#EBEBEB"/>
<path d="M258.436 856.661H141.741V857.337H258.436V856.661Z" fill="#EBEBEB"/>
<path d="M299.613 856.661H282.51V857.337H299.613V856.661Z" fill="#EBEBEB"/>
<path d="M608.33 868.062H355.218V868.737H608.33V868.062Z" fill="#EBEBEB"/>
<path d="M1071.41 97.8357L1085.83 100.213L1071.41 102.591L1069 117.019L1066.62 102.591L1052.2 100.213L1066.62 97.8357L1069 83.4076L1071.41 97.8357Z" fill="#EBEBEB"/>
<path d="M1072.38 100.213L1080.92 112.101L1069 103.591L1057.11 112.101L1065.65 100.213L1057.11 88.3248L1069 96.8628L1080.92 88.3248L1072.38 100.213Z" fill="#EBEBEB"/>
<path d="M1072.35 100.212C1072.35 101.101 1072 101.953 1071.37 102.581C1070.74 103.21 1069.89 103.563 1069 103.563C1068.11 103.563 1067.26 103.21 1066.63 102.581C1066 101.953 1065.65 101.101 1065.65 100.212C1065.65 99.3236 1066 98.4715 1066.63 97.8432C1067.26 97.2149 1068.11 96.8619 1069 96.8619C1069.89 96.8619 1070.74 97.2149 1071.37 97.8432C1072 98.4715 1072.35 99.3236 1072.35 100.212Z" fill="#E0E0E0"/>
<path d="M1172.56 656.154L1187.02 658.532L1172.56 660.909L1170.19 675.337L1167.81 660.909L1153.38 658.532L1167.81 656.154L1170.19 641.699L1172.56 656.154Z" fill="#EBEBEB"/>
<path d="M1173.57 658.531L1182.08 670.419L1170.19 661.881L1158.3 670.419L1166.84 658.531L1158.3 646.642L1170.19 655.153L1182.08 646.642L1173.57 658.531Z" fill="#EBEBEB"/>
<path d="M1173.54 658.531C1173.54 659.194 1173.34 659.842 1172.97 660.393C1172.61 660.944 1172.08 661.373 1171.47 661.627C1170.86 661.88 1170.18 661.947 1169.53 661.817C1168.88 661.688 1168.29 661.369 1167.82 660.9C1167.35 660.432 1167.03 659.835 1166.9 659.185C1166.77 658.535 1166.84 657.861 1167.09 657.249C1167.35 656.637 1167.78 656.114 1168.33 655.746C1168.88 655.377 1169.52 655.181 1170.19 655.181C1171.08 655.181 1171.93 655.534 1172.56 656.162C1173.18 656.791 1173.54 657.643 1173.54 658.531Z" fill="#E0E0E0"/>
<path d="M372.617 864.172L387.045 866.549L372.617 868.927L370.24 883.355L367.862 868.927L353.407 866.549L367.862 864.172L370.24 849.717L372.617 864.172Z" fill="#EBEBEB"/>
<path d="M373.591 866.55L382.129 878.439L370.24 869.901L358.352 878.439L366.863 866.55L358.352 854.662L370.24 863.173L382.129 854.662L373.591 866.55Z" fill="#EBEBEB"/>
<path d="M373.563 866.549C373.563 867.213 373.366 867.862 372.997 868.413C372.628 868.965 372.103 869.394 371.489 869.647C370.875 869.9 370.2 869.965 369.549 869.833C368.899 869.702 368.302 869.38 367.835 868.909C367.367 868.437 367.05 867.838 366.924 867.186C366.798 866.535 366.868 865.86 367.126 865.248C367.383 864.637 367.817 864.115 368.371 863.75C368.926 863.386 369.576 863.194 370.24 863.199C371.124 863.206 371.969 863.562 372.592 864.19C373.214 864.817 373.563 865.665 373.563 866.549Z" fill="#E0E0E0"/>
<path d="M889.3 38.1778L903.755 40.5554L889.3 42.9331L886.922 57.3882L884.544 42.9331L870.116 40.5554L884.544 38.1778L886.922 23.7497L889.3 38.1778Z" fill="#EBEBEB"/>
<path d="M890.299 40.5552L898.81 52.4435L886.922 43.9326L875.034 52.4435L883.572 40.5552L875.034 28.6669L886.922 37.2049L898.81 28.6669L890.299 40.5552Z" fill="#EBEBEB"/>
<path d="M890.272 40.556C890.272 41.4446 889.919 42.2968 889.291 42.9251C888.663 43.5534 887.81 43.9064 886.922 43.9064C886.033 43.9064 885.181 43.5534 884.553 42.9251C883.924 42.2968 883.571 41.4446 883.571 40.556C883.571 39.6674 883.924 38.8153 884.553 38.187C885.181 37.5587 886.033 37.2057 886.922 37.2057C887.81 37.2057 888.663 37.5587 889.291 38.187C889.919 38.8153 890.272 39.6674 890.272 40.556Z" fill="#E0E0E0"/>
<path d="M1002.67 287.589L1017.1 289.966L1002.67 292.344L1000.29 306.772L997.915 292.344L983.487 289.966L997.915 287.589L1000.29 273.161L1002.67 287.589Z" fill="#EBEBEB"/>
<path d="M1003.64 289.966L1012.18 301.854L1000.29 293.343L988.405 301.854L996.943 289.966L988.405 278.078L1000.29 286.616L1012.18 278.078L1003.64 289.966Z" fill="#EBEBEB"/>
<path d="M1003.64 289.967C1003.64 290.63 1003.45 291.277 1003.08 291.828C1002.71 292.379 1002.19 292.809 1001.58 293.062C1000.96 293.316 1000.29 293.382 999.639 293.253C998.989 293.124 998.392 292.805 997.924 292.336C997.455 291.867 997.136 291.27 997.007 290.621C996.878 289.971 996.944 289.297 997.198 288.685C997.451 288.073 997.881 287.549 998.432 287.181C998.983 286.813 999.63 286.617 1000.29 286.617C1001.18 286.624 1002.03 286.979 1002.65 287.606C1003.28 288.232 1003.64 289.081 1003.64 289.967Z" fill="#E0E0E0"/>
<path d="M1000.97 836.586L1015.4 838.963L1000.97 841.341L998.591 855.769L996.213 841.341L981.785 838.963L996.213 836.586L998.591 822.131L1000.97 836.586Z" fill="#EBEBEB"/>
<path d="M1001.94 838.964L1010.48 850.852L998.591 842.314L986.703 850.852L995.214 838.964L986.703 827.076L998.591 835.587L1010.48 827.076L1001.94 838.964Z" fill="#EBEBEB"/>
<path d="M1001.94 838.963C1001.94 839.852 1001.59 840.704 1000.96 841.332C1000.33 841.961 999.48 842.313 998.591 842.313C997.703 842.313 996.851 841.961 996.222 841.332C995.594 840.704 995.241 839.852 995.241 838.963C995.241 838.075 995.594 837.222 996.222 836.594C996.851 835.966 997.703 835.613 998.591 835.613C999.48 835.613 1000.33 835.966 1000.96 836.594C1001.59 837.222 1001.94 838.075 1001.94 838.963Z" fill="#E0E0E0"/>
<path d="M161.87 527.571L174.109 529.598L161.87 531.597L159.843 543.837L157.844 531.597L145.605 529.598L157.844 527.571L159.843 515.332L161.87 527.571Z" fill="#EBEBEB"/>
<path d="M162.708 529.597L169.922 539.675L159.844 532.434L149.766 539.675L157.007 529.597L149.766 519.519L159.844 526.733L169.922 519.519L162.708 529.597Z" fill="#EBEBEB"/>
<path d="M162.68 529.597C162.707 530.163 162.564 530.724 162.269 531.208C161.974 531.692 161.541 532.077 161.026 532.312C160.511 532.548 159.936 532.624 159.377 532.53C158.818 532.436 158.3 532.177 157.89 531.786C157.48 531.395 157.196 530.891 157.075 530.337C156.954 529.783 157.002 529.206 157.212 528.68C157.422 528.153 157.785 527.702 158.254 527.384C158.723 527.066 159.277 526.896 159.843 526.895C160.209 526.877 160.575 526.933 160.919 527.06C161.262 527.188 161.576 527.384 161.842 527.637C162.107 527.89 162.318 528.194 162.463 528.531C162.607 528.868 162.681 529.23 162.68 529.597Z" fill="#E0E0E0"/>
<path d="M1051.2 536.677L1063.44 538.703L1051.2 540.73L1049.2 552.969L1047.17 540.73L1034.93 538.703L1047.17 536.677L1049.2 524.464L1051.2 536.677Z" fill="#EBEBEB"/>
<path d="M1052.03 538.703L1059.27 548.782L1049.2 541.541L1039.12 548.782L1046.33 538.703L1039.12 528.625L1049.2 535.867L1059.27 528.625L1052.03 538.703Z" fill="#EBEBEB"/>
<path d="M1049.2 541.539C1050.76 541.539 1052.03 540.269 1052.03 538.702C1052.03 537.135 1050.76 535.865 1049.2 535.865C1047.63 535.865 1046.36 537.135 1046.36 538.702C1046.36 540.269 1047.63 541.539 1049.2 541.539Z" fill="#E0E0E0"/>
<path d="M1181.75 290.616L1193.99 292.615L1181.75 294.642L1179.73 306.881L1177.73 294.642L1165.49 292.615L1177.73 290.616L1179.73 278.376L1181.75 290.616Z" fill="#EBEBEB"/>
<path d="M1182.59 292.614L1189.8 302.692L1179.73 295.478L1169.65 302.692L1176.89 292.614L1169.65 282.536L1179.73 289.777L1189.8 282.536L1182.59 292.614Z" fill="#EBEBEB"/>
<path d="M1179.73 295.451C1181.29 295.451 1182.56 294.181 1182.56 292.614C1182.56 291.047 1181.29 289.777 1179.73 289.777C1178.16 289.777 1176.89 291.047 1176.89 292.614C1176.89 294.181 1178.16 295.451 1179.73 295.451Z" fill="#E0E0E0"/>
<path d="M331.386 46.0943L343.626 48.1207L331.386 50.1471L329.36 62.3597L327.361 50.1471L315.121 48.1207L327.361 46.0943L329.36 33.8548L331.386 46.0943Z" fill="#EBEBEB"/>
<path d="M332.224 48.1201L339.438 58.1982L329.36 50.9571L319.282 58.1982L326.523 48.1201L319.282 38.0421L329.36 45.2561L339.438 38.0421L332.224 48.1201Z" fill="#EBEBEB"/>
<path d="M329.361 50.9574C330.927 50.9574 332.198 49.6873 332.198 48.1205C332.198 46.5536 330.927 45.2835 329.361 45.2835C327.794 45.2835 326.524 46.5536 326.524 48.1205C326.524 49.6873 327.794 50.9574 329.361 50.9574Z" fill="#E0E0E0"/>
<path d="M409.633 605.574L421.846 607.6L409.633 609.6L407.607 621.839L405.607 609.6L393.368 607.6L405.607 605.574L407.607 593.361L409.633 605.574Z" fill="#EBEBEB"/>
<path d="M410.471 607.6L417.685 617.678L407.607 610.437L397.529 617.678L404.77 607.6L397.529 597.522L407.607 604.736L417.685 597.522L410.471 607.6Z" fill="#EBEBEB"/>
<path d="M407.607 610.438C409.174 610.438 410.444 609.168 410.444 607.601C410.444 606.034 409.174 604.764 407.607 604.764C406.041 604.764 404.77 606.034 404.77 607.601C404.77 609.168 406.041 610.438 407.607 610.438Z" fill="#E0E0E0"/>
<path d="M668.636 825.372L680.875 827.372L668.636 829.398L666.61 841.611L664.583 829.398L652.371 827.372L664.583 825.372L666.61 813.133L668.636 825.372Z" fill="#EBEBEB"/>
<path d="M669.474 827.372L676.688 837.45L666.61 830.236L656.532 837.45L663.773 827.372L656.532 817.294L666.61 824.535L676.688 817.294L669.474 827.372Z" fill="#EBEBEB"/>
<path d="M669.446 827.372C669.446 827.933 669.28 828.482 668.968 828.948C668.656 829.415 668.213 829.779 667.695 829.993C667.176 830.208 666.606 830.264 666.056 830.155C665.505 830.045 665 829.775 664.603 829.378C664.206 828.981 663.936 828.476 663.827 827.926C663.717 827.375 663.773 826.805 663.988 826.287C664.203 825.768 664.566 825.325 665.033 825.013C665.5 824.702 666.048 824.535 666.609 824.535C666.987 824.516 667.364 824.576 667.717 824.712C668.07 824.847 668.391 825.056 668.658 825.323C668.926 825.59 669.134 825.911 669.27 826.264C669.405 826.617 669.466 826.995 669.446 827.372Z" fill="#E0E0E0"/>
<path d="M795.517 257.977L807.757 259.976L795.517 262.002L793.491 274.242L791.491 262.002L779.252 259.976L791.491 257.977L793.491 245.737L795.517 257.977Z" fill="#EBEBEB"/>
<path d="M796.355 259.976L803.569 270.054L793.491 262.84L783.413 270.054L790.654 259.976L783.413 249.898L793.491 257.139L803.569 249.898L796.355 259.976Z" fill="#EBEBEB"/>
<path d="M796.327 259.977C796.327 260.538 796.161 261.086 795.849 261.553C795.537 262.019 795.094 262.383 794.576 262.598C794.058 262.812 793.487 262.868 792.937 262.759C792.387 262.649 791.881 262.379 791.484 261.983C791.087 261.586 790.817 261.08 790.708 260.53C790.598 259.98 790.655 259.409 790.869 258.891C791.084 258.372 791.448 257.929 791.914 257.618C792.381 257.306 792.929 257.14 793.49 257.14C793.868 257.12 794.245 257.18 794.598 257.316C794.951 257.452 795.272 257.66 795.539 257.927C795.807 258.195 796.015 258.515 796.151 258.868C796.287 259.221 796.347 259.599 796.327 259.977Z" fill="#E0E0E0"/>
<path d="M236.686 197.374L251.114 199.724L236.686 202.102L234.308 216.557L231.93 202.102L217.502 199.724L231.93 197.374L234.308 182.918L236.686 197.374Z" fill="#EBEBEB"/>
<path d="M237.658 199.724L246.196 211.639L234.308 203.101L222.419 211.639L230.93 199.724L222.419 187.836L234.308 196.374L246.196 187.836L237.658 199.724Z" fill="#EBEBEB"/>
<path d="M237.766 199.724C237.772 200.388 237.58 201.038 237.215 201.593C236.85 202.147 236.329 202.581 235.717 202.838C235.105 203.096 234.431 203.166 233.779 203.04C233.127 202.914 232.528 202.597 232.057 202.13C231.585 201.662 231.263 201.065 231.132 200.415C231.001 199.764 231.065 199.089 231.318 198.475C231.571 197.861 232 197.337 232.552 196.967C233.103 196.598 233.752 196.401 234.416 196.401C235.3 196.401 236.148 196.75 236.775 197.372C237.403 197.995 237.759 198.84 237.766 199.724Z" fill="#E0E0E0"/>
<path d="M578.663 14.4281L593.091 16.8057L578.663 19.1834L576.285 33.6385L573.908 19.1834L559.479 16.8057L573.908 14.4281L576.285 0L578.663 14.4281Z" fill="#EBEBEB"/>
<path d="M579.635 16.8055L588.173 28.6938L576.285 20.1829L564.397 28.6938L572.935 16.8055L564.397 4.91722L576.285 13.4552L588.173 4.91722L579.635 16.8055Z" fill="#EBEBEB"/>
<path d="M579.636 16.8063C579.636 17.6949 579.283 18.5471 578.655 19.1754C578.026 19.8037 577.174 20.1567 576.286 20.1567C575.397 20.1567 574.545 19.8037 573.917 19.1754C573.288 18.5471 572.935 17.6949 572.935 16.8063C572.935 15.9178 573.288 15.0656 573.917 14.4373C574.545 13.809 575.397 13.456 576.286 13.456C577.174 13.456 578.026 13.809 578.655 14.4373C579.283 15.0656 579.636 15.9178 579.636 16.8063Z" fill="#E0E0E0"/>
<path d="M486.502 315.987L500.93 318.364L486.502 320.742L484.124 335.17L481.719 320.742L467.291 318.364L481.719 315.987L484.124 301.559L486.502 315.987Z" fill="#EBEBEB"/>
<path d="M487.475 318.364L495.986 330.252L484.125 321.741L472.236 330.252L480.747 318.364L472.236 306.476L484.125 315.014L495.986 306.476L487.475 318.364Z" fill="#EBEBEB"/>
<path d="M487.448 318.363C487.448 319.027 487.251 319.676 486.881 320.227C486.512 320.779 485.987 321.208 485.373 321.461C484.76 321.714 484.085 321.779 483.434 321.647C482.783 321.516 482.186 321.194 481.719 320.723C481.251 320.251 480.935 319.652 480.808 319C480.682 318.348 480.752 317.674 481.01 317.062C481.268 316.451 481.701 315.929 482.256 315.564C482.81 315.2 483.461 315.008 484.125 315.013C484.563 315.013 484.998 315.1 485.403 315.268C485.808 315.437 486.175 315.684 486.484 315.996C486.793 316.307 487.037 316.677 487.203 317.083C487.368 317.49 487.451 317.925 487.448 318.363Z" fill="#E0E0E0"/>
<path d="M263.92 772.389L278.348 774.766L263.92 777.144L261.542 791.572L259.164 777.144L244.736 774.766L259.164 772.389L261.542 757.961L263.92 772.389Z" fill="#EBEBEB"/>
<path d="M264.893 774.766L273.431 786.655L261.543 778.144L249.654 786.655L258.165 774.766L249.654 762.878L261.543 771.416L273.431 762.878L264.893 774.766Z" fill="#EBEBEB"/>
<path d="M264.785 774.767C264.785 775.43 264.588 776.077 264.22 776.628C263.852 777.179 263.329 777.609 262.717 777.862C262.104 778.116 261.431 778.182 260.781 778.053C260.131 777.924 259.534 777.605 259.065 777.136C258.597 776.667 258.278 776.07 258.149 775.421C258.019 774.771 258.086 774.097 258.339 773.485C258.593 772.873 259.022 772.349 259.573 771.981C260.124 771.613 260.772 771.417 261.434 771.417C262.323 771.417 263.175 771.77 263.804 772.398C264.432 773.026 264.785 773.878 264.785 774.767Z" fill="#E0E0E0"/>
<path d="M847.15 593.335L861.578 595.712L847.15 598.09L844.772 612.518L842.394 598.09L827.939 595.712L842.394 593.335L844.772 578.906L847.15 593.335Z" fill="#EBEBEB"/>
<path d="M848.122 595.712L856.66 607.6L844.772 599.062L832.884 607.6L841.395 595.712L832.884 583.824L844.772 592.335L856.66 583.824L848.122 595.712Z" fill="#EBEBEB"/>
<path d="M848.122 595.713C848.122 596.601 847.769 597.454 847.141 598.082C846.513 598.71 845.66 599.063 844.772 599.063C843.883 599.063 843.031 598.71 842.403 598.082C841.774 597.454 841.422 596.601 841.422 595.713C841.422 594.824 841.774 593.972 842.403 593.344C843.031 592.715 843.883 592.362 844.772 592.362C845.66 592.362 846.513 592.715 847.141 593.344C847.769 593.972 848.122 594.824 848.122 595.713Z" fill="#E0E0E0"/>
<path d="M498.772 107.608C502.841 82.5386 485.817 58.9171 460.748 54.8478C435.679 50.7784 412.057 67.8023 407.988 92.8716C403.919 117.941 420.942 141.562 446.012 145.632C471.081 149.701 494.703 132.677 498.772 107.608Z" fill="#F5F5F5"/>
<path d="M1181.04 442.176C1186.88 417.457 1171.57 392.69 1146.85 386.856C1122.13 381.022 1097.36 396.33 1091.53 421.049C1085.7 445.767 1101 470.535 1125.72 476.369C1150.44 482.203 1175.21 466.894 1181.04 442.176Z" fill="#F5F5F5"/>
<path d="M764.742 936.691C790.139 936.691 810.728 916.103 810.728 890.705C810.728 865.308 790.139 844.719 764.742 844.719C739.344 844.719 718.756 865.308 718.756 890.705C718.756 916.103 739.344 936.691 764.742 936.691Z" fill="#F5F5F5"/>
<path d="M989.311 136.666C992.653 122.506 983.883 108.318 969.723 104.976C955.563 101.634 941.375 110.403 938.033 124.563C934.691 138.723 943.46 152.911 957.62 156.254C971.78 159.596 985.969 150.826 989.311 136.666Z" fill="#F5F5F5"/>
<path d="M661.45 678.391C675.999 678.391 687.793 666.596 687.793 652.047C687.793 637.498 675.999 625.704 661.45 625.704C646.9 625.704 635.106 637.498 635.106 652.047C635.106 666.596 646.9 678.391 661.45 678.391Z" fill="#F5F5F5"/>
<path d="M291.25 580.827C301.538 570.539 301.538 553.859 291.25 543.571C280.962 533.284 264.283 533.284 253.995 543.571C243.707 553.859 243.707 570.539 253.995 580.827C264.283 591.114 280.962 591.114 291.25 580.827Z" fill="#F5F5F5"/>
<g clip-path="url(#clip0_1_2)">
<path opacity="0.1" d="M228 524.233H377.646V579.037H440.671V524.233H479.338V471.408H440.671V267.263H358.16L228 472.321V524.233ZM378.864 471.408H294.374V468.972L376.428 339.117H378.864V471.408Z" fill="#74899F"/>
<path opacity="0.1" d="M654.075 585.888C732.475 585.888 779.82 526.212 779.972 423.454C780.124 321.458 732.171 263 654.075 263C575.827 263 528.33 321.305 528.178 423.454C527.873 525.908 575.522 585.736 654.075 585.888ZM654.075 531.236C618.3 531.236 595.16 495.309 595.313 423.454C595.465 352.666 618.452 317.043 654.075 317.043C689.545 317.043 712.685 352.666 712.685 423.454C712.837 495.309 689.698 531.236 654.075 531.236Z" fill="#74899F"/>
<path opacity="0.1" d="M830.829 524.233H980.475V579.037H1043.5V524.233H1082.17V471.408H1043.5V267.263H960.989L830.829 472.321V524.233ZM981.693 471.408H897.203V468.972L979.257 339.117H981.693V471.408Z" fill="#74899F"/>
</g>
<defs>
<clipPath id="clip0_1_2">
<rect width="854.167" height="322.888" fill="white" transform="translate(228 263)"/>
</clipPath>
</defs>
</svg>
