<svg width="20" height="20" viewBox="0 0 20 20" fill="none" xmlns="http://www.w3.org/2000/svg">
<path d="M2.5 8.33148C2.5 5.18878 2.5 3.61743 3.47631 2.64112C4.45262 1.66481 6.02397 1.66481 9.16667 1.66481H10.8333C13.976 1.66481 15.5474 1.66481 16.5237 2.64112C17.5 3.61743 17.5 5.18878 17.5 8.33148V11.6648C17.5 14.8075 17.5 16.3789 16.5237 17.3551C15.5474 18.3315 13.976 18.3315 10.8333 18.3315H9.16667C6.02397 18.3315 4.45262 18.3315 3.47631 17.3551C2.5 16.3789 2.5 14.8075 2.5 11.6648V8.33148Z" stroke="#3CA0BA" stroke-width="1.25"/>
<path d="M6.66667 10H13.3333" stroke="#3CA0BA" stroke-width="1.25" stroke-linecap="round"/>
<path d="M6.66669 6.66481H13.3334" stroke="#3CA0BA" stroke-width="1.25" stroke-linecap="round"/>
<path d="M6.66669 13.3352H10.8334" stroke="#3CA0BA" stroke-width="1.25" stroke-linecap="round"/>
</svg>
