<svg width="24" height="24" viewBox="0 0 24 24" fill="none" xmlns="http://www.w3.org/2000/svg">
<rect width="24" height="24" rx="4" fill="#FF4545" fill-opacity="0.1"/>
<g clip-path="url(#clip0_259_3744)">
<path fill-rule="evenodd" clip-rule="evenodd" d="M13.5175 5.33203C14.0914 5.33203 14.601 5.69927 14.7824 6.24372L15.1452 7.33203H17.3314C17.6996 7.33203 17.998 7.63051 17.998 7.9987C17.998 8.36688 17.6996 8.66535 17.3314 8.66536L17.3297 8.71286L16.7514 16.8078C16.6767 17.8545 15.8058 18.6654 14.7566 18.6654H9.23954C8.19026 18.6654 7.31938 17.8545 7.24462 16.8078L6.66641 8.71286C6.66527 8.69693 6.6647 8.68109 6.66469 8.66536C6.29651 8.66535 5.99805 8.36688 5.99805 7.9987C5.99805 7.63051 6.29653 7.33203 6.66471 7.33203H8.85087L9.21364 6.24372C9.39513 5.69927 9.90465 5.33203 10.4786 5.33203H13.5175ZM9.99805 10.6654C9.65615 10.6654 9.37437 10.9227 9.33587 11.2543L9.33138 11.332V15.332C9.33138 15.7002 9.62985 15.9987 9.99805 15.9987C10.3399 15.9987 10.6217 15.7413 10.6602 15.4098L10.6647 15.332V11.332C10.6647 10.9638 10.3662 10.6654 9.99805 10.6654ZM13.998 10.6654C13.6298 10.6654 13.3314 10.9638 13.3314 11.332V15.332C13.3314 15.7002 13.6298 15.9987 13.998 15.9987C14.3662 15.9987 14.6647 15.7002 14.6647 15.332V11.332C14.6647 10.9638 14.3662 10.6654 13.998 10.6654ZM13.5175 6.66536H10.4786L10.2563 7.33203H13.7398L13.5175 6.66536Z" fill="#FF4545"/>
</g>
<defs>
<clipPath id="clip0_259_3744">
<rect width="16" height="16" fill="white" transform="translate(4 4)"/>
</clipPath>
</defs>
</svg>
