<svg width="24" height="24" viewBox="0 0 24 24" fill="none" xmlns="http://www.w3.org/2000/svg">
<path d="M3.00009 4.99941H21.0001C21.1823 4.99998 21.361 5.05024 21.5168 5.14479C21.6726 5.23933 21.7996 5.37457 21.8843 5.53596C21.9689 5.69735 22.008 5.87877 21.9972 6.06069C21.9864 6.24261 21.9262 6.41815 21.8231 6.56841L12.8231 19.5684C12.4501 20.1074 11.5521 20.1074 11.1781 19.5684L2.17809 6.56841C2.07391 6.41846 2.01282 6.24284 2.00145 6.06061C1.99008 5.87839 2.02887 5.69653 2.1136 5.5348C2.19833 5.37307 2.32576 5.23765 2.48205 5.14326C2.63834 5.04887 2.81751 4.99912 3.00009 4.99941Z" fill="#FB3535"/>
</svg>
