<svg width="24" height="24" viewBox="0 0 24 24" fill="none" xmlns="http://www.w3.org/2000/svg">
<path d="M3.00009 19.0006H21.0001C21.1823 19 21.361 18.9498 21.5168 18.8552C21.6726 18.7607 21.7996 18.6254 21.8843 18.464C21.9689 18.3027 22.008 18.1212 21.9972 17.9393C21.9864 17.7574 21.9262 17.5818 21.8231 17.4316L12.8231 4.43159C12.4501 3.89259 11.5521 3.89259 11.1781 4.43159L2.17809 17.4316C2.07391 17.5815 2.01282 17.7572 2.00145 17.9394C1.99008 18.1216 2.02887 18.3035 2.1136 18.4652C2.19833 18.6269 2.32576 18.7623 2.48205 18.8567C2.63834 18.9511 2.81751 19.0009 3.00009 19.0006Z" fill="#35C34C"/>
</svg>
