<svg width="20" height="20" viewBox="0 0 20 20" fill="none" xmlns="http://www.w3.org/2000/svg">
<g clip-path="url(#clip0_1544_509)">
<path d="M2.46094 15.3467H4.86898L6.84816 18.7748C6.92016 18.8995 7.02372 19.0031 7.14842 19.0751C7.27313 19.1471 7.41459 19.185 7.55859 19.185C7.70259 19.185 7.84406 19.1471 7.96877 19.0751C8.09347 19.0031 8.19703 18.8995 8.26902 18.7748L10.2482 15.3467H17.5391C18.1915 15.3459 18.817 15.0864 19.2784 14.6251C19.7398 14.1637 19.9993 13.5382 20 12.8857V3.27637C19.9993 2.62391 19.7397 1.9984 19.2784 1.53704C18.817 1.07569 18.1915 0.816174 17.5391 0.81543H2.46094C1.80848 0.816174 1.18297 1.07569 0.721614 1.53704C0.26026 1.9984 0.000744385 2.62391 0 3.27637L0 12.8857C0.000734067 13.5382 0.260246 14.1637 0.721603 14.6251C1.18296 15.0864 1.80848 15.3459 2.46094 15.3467ZM1.64062 3.27637C1.64087 3.05888 1.72738 2.85038 1.88116 2.69659C2.03495 2.54281 2.24345 2.4563 2.46094 2.45605H17.5391C17.7565 2.4563 17.9651 2.54281 18.1188 2.69659C18.2726 2.85038 18.3591 3.05888 18.3594 3.27637V12.8857C18.3591 13.1032 18.2726 13.3117 18.1188 13.4655C17.9651 13.6193 17.7565 13.7058 17.5391 13.7061H9.77461C9.63062 13.7061 9.48916 13.744 9.36446 13.816C9.23977 13.888 9.13621 13.9915 9.06422 14.1162L7.55859 16.724L6.05297 14.1162C5.98097 13.9915 5.87742 13.888 5.75272 13.816C5.62802 13.744 5.48657 13.7061 5.34258 13.7061H2.46094C2.24345 13.7058 2.03495 13.6193 1.88116 13.4655C1.72738 13.3117 1.64087 13.1032 1.64062 12.8857V3.27637ZM4.27734 6.01074C4.27734 5.79318 4.36377 5.58453 4.51761 5.43069C4.67145 5.27685 4.8801 5.19043 5.09766 5.19043H9.82422C10.0418 5.19043 10.2504 5.27685 10.4043 5.43069C10.5581 5.58453 10.6445 5.79318 10.6445 6.01074C10.6445 6.2283 10.5581 6.43695 10.4043 6.59079C10.2504 6.74463 10.0418 6.83105 9.82422 6.83105H5.09766C4.8801 6.83105 4.67145 6.74463 4.51761 6.59079C4.36377 6.43695 4.27734 6.2283 4.27734 6.01074ZM4.27734 10.1514C4.27734 9.93381 4.36377 9.72516 4.51761 9.57132C4.67145 9.41748 4.8801 9.33105 5.09766 9.33105H14.9023C15.1199 9.33105 15.3286 9.41748 15.4824 9.57132C15.6362 9.72516 15.7227 9.93381 15.7227 10.1514C15.7227 10.3689 15.6362 10.5776 15.4824 10.7314C15.3286 10.8853 15.1199 10.9717 14.9023 10.9717H5.09766C4.8801 10.9717 4.67145 10.8853 4.51761 10.7314C4.36377 10.5776 4.27734 10.3689 4.27734 10.1514Z" fill="white"/>
</g>
<defs>
<clipPath id="clip0_1544_509">
<rect width="20" height="20" fill="white"/>
</clipPath>
</defs>
</svg>
