<svg width="26" height="26" viewBox="0 0 26 26" fill="none" xmlns="http://www.w3.org/2000/svg">
<path d="M19.5 3.25H6.5C3.91788 3.25 2.4375 4.73038 2.4375 7.3125C2.4375 9.52331 4.38669 12.0388 6.13681 12.9147L6.77381 13.2332C7.50019 15.6626 9.61106 17.4956 12.1875 17.8189V19.5C12.1875 20.3978 11.4603 21.125 10.5625 21.125H8.9375V22.75H17.0625V21.125H15.4375C14.5397 21.125 13.8125 20.3978 13.8125 19.5V17.8189C16.3889 17.4956 18.4998 15.6626 19.2262 13.2332L19.8632 12.9147C21.6133 12.0388 23.5625 9.52331 23.5625 7.3125C23.5625 4.73038 22.0821 3.25 19.5 3.25ZM4.0625 7.3125C4.0625 5.62656 4.81406 4.875 6.5 4.875V11.2369C5.22194 10.3919 4.0625 8.58 4.0625 7.3125ZM17.875 11.375C17.875 14.0636 15.6886 16.25 13 16.25C10.3114 16.25 8.125 14.0636 8.125 11.375V4.875H17.875V11.375ZM19.5 11.2369V4.875C21.1859 4.875 21.9375 5.62656 21.9375 7.3125C21.9375 8.58 20.7781 10.3919 19.5 11.2369ZM8.9375 11.375H10.5625C10.5625 12.7189 11.6561 13.8125 13 13.8125V15.4375C10.7599 15.4375 8.9375 13.6151 8.9375 11.375Z" fill="#111918"/>
</svg>
