<svg width="20" height="20" viewBox="0 0 20 20" fill="none" xmlns="http://www.w3.org/2000/svg">
<path d="M1.66406 10.1693C1.66406 8.26226 1.66406 7.30875 2.09673 6.5183C2.5294 5.72786 3.31985 5.23727 4.90075 4.25612L6.56742 3.22174C8.23855 2.18459 9.07414 1.66602 9.99739 1.66602C10.9206 1.66602 11.7562 2.18459 13.4274 3.22174L15.0941 4.25612C16.675 5.23727 17.4654 5.72786 17.8981 6.5183C18.3307 7.30875 18.3307 8.26226 18.3307 10.1693V11.4368C18.3307 14.6875 18.3307 16.3129 17.3544 17.3228C16.3781 18.3327 14.8067 18.3327 11.6641 18.3327H8.33073C5.18803 18.3327 3.61669 18.3327 2.64037 17.3228C1.66406 16.3129 1.66406 14.6875 1.66406 11.4368V10.1693Z" stroke="#1C274C" stroke-width="1.25"/>
<path d="M12.5 15H7.5" stroke="#1C274C" stroke-width="1.25" stroke-linecap="round"/>
</svg>
