<svg width="29" height="29" viewBox="0 0 29 29" fill="none" xmlns="http://www.w3.org/2000/svg">
<path d="M25.375 5.4375H3.625C3.1443 5.4375 2.68328 5.62846 2.34337 5.96837C2.00346 6.30828 1.8125 6.7693 1.8125 7.25V21.75C1.8125 22.2307 2.00346 22.6917 2.34337 23.0316C2.68328 23.3715 3.1443 23.5625 3.625 23.5625H25.375C25.8557 23.5625 26.3167 23.3715 26.6566 23.0316C26.9965 22.6917 27.1875 22.2307 27.1875 21.75V7.25C27.1875 6.7693 26.9965 6.30828 26.6566 5.96837C26.3167 5.62846 25.8557 5.4375 25.375 5.4375ZM23.3812 7.25L14.5 13.3944L5.61875 7.25H23.3812ZM3.625 21.75V8.07469L13.9834 15.2431C14.1351 15.3484 14.3154 15.4048 14.5 15.4048C14.6846 15.4048 14.8649 15.3484 15.0166 15.2431L25.375 8.07469V21.75H3.625Z" fill="black" fill-opacity="0.9"/>
</svg>
