<svg width="26" height="26" viewBox="0 0 26 26" fill="none" xmlns="http://www.w3.org/2000/svg">
<path d="M12.78 0C16.8498 0 20.1491 3.29926 20.1491 7.36913C20.1491 11.439 16.8498 14.7383 12.78 14.7383C8.71008 14.7383 5.41082 11.439 5.41082 7.36913C5.41534 3.30109 8.71191 0.00457032 12.7795 0H12.7799H12.78ZM12.78 13.0324C15.9077 13.0324 18.4433 10.4969 18.4433 7.36908C18.4433 4.2413 15.9077 1.70579 12.78 1.70579C9.6522 1.70579 7.11664 4.2413 7.11664 7.3691C7.12053 10.4953 9.65375 13.0285 12.7796 13.0324H12.78ZM23.8814 26L23.4606 23.6664C22.5049 18.5678 18.0882 14.7609 12.7824 14.7609H12.7798H12.7799C7.47922 14.7611 3.06554 18.5587 2.11111 23.5816L2.10039 23.6494L1.68076 25.9772L0 25.6748L0.420774 23.3435C1.53568 17.4516 6.64336 13.0557 12.7777 13.0557C18.9186 13.0557 24.0306 17.4609 25.1258 23.2837L25.138 23.3617L25.56 25.6975L23.8814 26Z" fill="black" fill-opacity="0.9"/>
</svg>
