<svg width="35" height="35" viewBox="0 0 35 35" fill="none" xmlns="http://www.w3.org/2000/svg">
<rect width="34.5455" height="34.5455" rx="6" fill="#50AAC1"/>
<path d="M17.6372 8C15.2917 8 14.9973 8.01025 14.0761 8.05218C13.1567 8.09428 12.5291 8.23984 11.9799 8.45342C11.4119 8.674 10.9301 8.96907 10.45 9.44929C9.96963 9.92933 9.67454 10.4112 9.45323 10.979C9.23912 11.5283 9.09338 12.1561 9.052 13.0751C9.0108 13.9963 9 14.2909 9 16.6364C9 18.9819 9.01044 19.2753 9.05217 20.1965C9.09446 21.1159 9.24002 21.7435 9.45341 22.2926C9.67418 22.8607 9.96926 23.3425 10.4495 23.8225C10.9294 24.3029 11.4112 24.5987 11.9789 24.8193C12.5283 25.0329 13.1561 25.1785 14.0754 25.2206C14.9966 25.2625 15.2908 25.2727 17.6361 25.2727C19.9818 25.2727 20.2753 25.2625 21.1965 25.2205C22.1159 25.1784 22.7442 25.0329 23.2937 24.8193C23.8615 24.5987 24.3427 24.3029 24.8225 23.8225C25.3029 23.3425 25.598 22.8607 25.8193 22.2928C26.0316 21.7435 26.1774 21.1158 26.2206 20.1967C26.2619 19.2755 26.2727 18.9819 26.2727 16.6364C26.2727 14.2909 26.2619 13.9965 26.2206 13.0753C26.1774 12.1559 26.0316 11.5283 25.8193 10.9792C25.598 10.4112 25.3029 9.92932 24.8225 9.44929C24.3421 8.96889 23.8617 8.67381 23.2932 8.45341C22.7426 8.23984 22.1146 8.09428 21.1952 8.05218C20.274 8.01025 19.9807 8 17.6345 8H17.6372ZM16.8624 9.55635C17.0924 9.55599 17.3489 9.55635 17.6372 9.55635C19.9431 9.55635 20.2164 9.56462 21.127 9.606C21.9691 9.64451 22.4261 9.78521 22.7305 9.90342C23.1336 10.0599 23.4209 10.2471 23.723 10.5493C24.0253 10.8516 24.2124 11.1395 24.3693 11.5425C24.4875 11.8466 24.6284 12.3036 24.6667 13.1457C24.7081 14.0561 24.7171 14.3296 24.7171 16.6344C24.7171 18.9392 24.7081 19.2127 24.6667 20.1231C24.6282 20.9652 24.4875 21.4222 24.3693 21.7262C24.2128 22.1293 24.0253 22.4163 23.723 22.7183C23.4207 23.0206 23.1337 23.2077 22.7305 23.3643C22.4264 23.483 21.9691 23.6234 21.127 23.6619C20.2166 23.7032 19.9431 23.7122 17.6372 23.7122C15.3311 23.7122 15.0578 23.7032 14.1473 23.6619C13.3053 23.623 12.8483 23.4823 12.5436 23.3641C12.1406 23.2076 11.8527 23.0204 11.5505 22.7182C11.2482 22.4159 11.0611 22.1287 10.9042 21.7255C10.7859 21.4215 10.6451 20.9644 10.6067 20.1224C10.5654 19.212 10.5571 18.9385 10.5571 16.6322C10.5571 14.326 10.5654 14.0539 10.6067 13.1435C10.6452 12.3014 10.7859 11.8444 10.9042 11.54C11.0607 11.137 11.2482 10.8491 11.5505 10.5468C11.8527 10.2446 12.1406 10.0574 12.5436 9.90054C12.8481 9.78179 13.3053 9.64145 14.1473 9.60276C14.944 9.56678 15.2528 9.55599 16.8624 9.55418L16.8624 9.55635ZM22.2472 10.9903C21.6751 10.9903 21.2109 11.454 21.2109 12.0263C21.2109 12.5985 21.6751 13.0627 22.2472 13.0627C22.8194 13.0627 23.2836 12.5985 23.2836 12.0263C23.2836 11.4542 22.8194 10.99 22.2472 10.99L22.2472 10.9903ZM17.6372 12.2012C15.1878 12.2012 13.202 14.1871 13.202 16.6364C13.202 19.0857 15.1878 21.0706 17.6372 21.0706C20.0865 21.0706 22.0716 19.0857 22.0716 16.6364C22.0716 14.1871 20.0863 12.2012 17.637 12.2012H17.6372ZM17.6372 13.7576C19.227 13.7576 20.516 15.0464 20.516 16.6364C20.516 18.2262 19.227 19.5152 17.6372 19.5152C16.0472 19.5152 14.7584 18.2262 14.7584 16.6364C14.7584 15.0464 16.0472 13.7576 17.6372 13.7576Z" fill="white"/>
</svg>
