<svg width="35" height="35" viewBox="0 0 35 35" fill="none" xmlns="http://www.w3.org/2000/svg">
<rect width="34.5455" height="34.5455" rx="6" fill="#50AAC1"/>
<path d="M14.0417 12.0208C14.0417 12.4205 13.9232 12.8112 13.7011 13.1436C13.4791 13.4759 13.1634 13.7349 12.7942 13.8879C12.4249 14.0408 12.0186 14.0808 11.6266 14.0029C11.2346 13.9249 10.8745 13.7324 10.5919 13.4498C10.3093 13.1672 10.1168 12.8071 10.0388 12.4151C9.96086 12.0231 10.0009 11.6168 10.1538 11.2475C10.3068 10.8782 10.5658 10.5626 10.8981 10.3406C11.2304 10.1185 11.6212 10 12.0208 10C12.5568 10 13.0708 10.2129 13.4498 10.5919C13.8288 10.9709 14.0417 11.4849 14.0417 12.0208Z" fill="white"/>
<path d="M13.5841 15.3889V24.3169C13.5844 24.3828 13.5718 24.4481 13.5468 24.509C13.5219 24.57 13.4851 24.6254 13.4386 24.6721C13.3922 24.7188 13.337 24.7559 13.2762 24.7812C13.2153 24.8064 13.1501 24.8195 13.0843 24.8195H10.9543C10.8884 24.8196 10.8232 24.8068 10.7623 24.7817C10.7014 24.7565 10.6461 24.7196 10.5995 24.6731C10.5529 24.6265 10.516 24.5712 10.4909 24.5103C10.4658 24.4494 10.4529 24.3841 10.4531 24.3183V15.3889C10.4531 15.2559 10.5059 15.1285 10.5999 15.0345C10.6939 14.9405 10.8214 14.8877 10.9543 14.8877H13.0843C13.2169 14.8881 13.3441 14.941 13.4378 15.035C13.5315 15.1289 13.5841 15.2562 13.5841 15.3889Z" fill="white"/>
<path d="M24.7171 20.0375V24.3594C24.7173 24.42 24.7055 24.48 24.6824 24.536C24.6593 24.592 24.6254 24.6428 24.5825 24.6856C24.5397 24.7285 24.4888 24.7624 24.4329 24.7855C24.3769 24.8086 24.3169 24.8204 24.2563 24.8202H21.966C21.9055 24.8204 21.8455 24.8086 21.7895 24.7855C21.7335 24.7624 21.6827 24.7285 21.6398 24.6856C21.597 24.6428 21.5631 24.592 21.54 24.536C21.5169 24.48 21.5051 24.42 21.5053 24.3594V20.1709C21.5053 19.5458 21.6885 17.4333 19.8711 17.4333C18.4633 17.4333 18.1763 18.8789 18.1197 19.5283V24.3594C18.1197 24.4805 18.0721 24.5967 17.9872 24.6829C17.9022 24.7691 17.7867 24.8184 17.6657 24.8202H15.4535C15.3931 24.8202 15.3333 24.8083 15.2774 24.7851C15.2216 24.7619 15.1709 24.728 15.1282 24.6852C15.0855 24.6424 15.0517 24.5916 15.0287 24.5357C15.0057 24.4798 14.994 24.4199 14.9941 24.3594V15.3505C14.994 15.2901 15.0057 15.2302 15.0287 15.1743C15.0517 15.1184 15.0855 15.0676 15.1282 15.0248C15.1709 14.982 15.2216 14.948 15.2774 14.9249C15.3333 14.9017 15.3931 14.8898 15.4535 14.8898H17.6657C17.7879 14.8898 17.9051 14.9383 17.9915 15.0247C18.0779 15.1111 18.1264 15.2283 18.1264 15.3505V16.1292C18.6492 15.3451 19.4238 14.7402 21.0769 14.7402C24.7386 14.7402 24.7171 18.1595 24.7171 20.0375Z" fill="white"/>
</svg>
