<svg width="20" height="20" viewBox="0 0 20 20" fill="none" xmlns="http://www.w3.org/2000/svg">
<g clip-path="url(#clip0_1544_511)">
<path d="M11.2221 13.184L11.2235 13.1847C11.2555 13.2014 11.2885 13.2183 11.3221 13.2355C11.367 13.2586 11.413 13.2822 11.4591 13.3063L12.638 12.1312C13.0471 11.7221 13.5313 11.5019 14.0413 11.5019C14.5553 11.5019 15.0359 11.7261 15.4297 12.1359C15.43 12.1361 15.4302 12.1363 15.4304 12.1365L17.5678 14.2817C17.5678 14.2818 17.5679 14.2819 17.568 14.282C17.9776 14.6876 18.1975 15.1758 18.1975 15.6892C18.1975 16.1982 17.982 16.6897 17.5813 17.1066C17.5813 17.1066 17.5812 17.1067 17.5812 17.1067L17.5091 17.0374C17.3415 17.2127 17.1701 17.3803 17.0026 17.54L11.2221 13.184ZM11.2221 13.184C11.081 13.1134 10.9531 13.0494 10.8449 12.9823C9.70225 12.2565 8.6622 11.3098 7.66288 10.082C7.2 9.49689 6.88486 9.00337 6.65406 8.50906C6.92459 8.25856 7.17867 8.00072 7.42425 7.75151C7.45219 7.72316 7.48001 7.69492 7.50774 7.66682C7.56249 7.61206 7.61719 7.55639 7.67153 7.50109L7.67179 7.50081C7.72639 7.44524 7.78063 7.39003 7.83482 7.33584C8.25949 6.91117 8.4778 6.41722 8.4778 5.91697C8.4778 5.41672 8.25949 4.92277 7.83482 4.49809L6.77109 3.43437C6.65009 3.31337 6.52657 3.18983 6.41097 3.06652L6.41097 3.06651L6.40987 3.06537C6.17623 2.82395 5.92957 2.57332 5.67458 2.33787C5.28063 1.94853 4.80465 1.7374 4.30018 1.7374C3.79544 1.7374 3.31167 1.94873 2.90614 2.33804L2.90612 2.33802L2.90468 2.33947L2.89689 2.34726L2.89658 2.34757L1.5721 3.68374C1.57204 3.68379 1.57199 3.68385 1.57194 3.6839C1.0567 4.1992 0.762077 4.8289 0.697672 5.55748H0.69767L0.697619 5.5581C0.602237 6.71859 0.943949 7.79554 1.20226 8.4922C1.83811 10.2074 2.78745 11.7951 4.19992 13.4932L4.20013 13.4935C5.91565 15.5419 7.98028 17.1601 10.339 18.3003L10.3397 18.3006C11.2382 18.7264 12.4487 19.2361 13.805 19.3231L13.8066 19.3232C13.8881 19.3271 13.9762 19.3311 14.0568 19.3311C14.9837 19.3311 15.7667 18.9968 16.3786 18.3325L16.3882 18.3221L16.3894 18.3197C16.3907 18.3183 16.3921 18.3168 16.3935 18.3151C16.3961 18.312 16.3991 18.3083 16.4021 18.3037C16.5849 18.083 16.7938 17.881 17.0186 17.6636C17.0362 17.6466 17.054 17.6294 17.0718 17.6122L11.2221 13.184ZM16.6903 16.2298C16.6837 16.2348 16.677 16.2411 16.6709 16.2492C16.6698 16.2506 16.6686 16.2523 16.6673 16.2543C16.5484 16.3814 16.4272 16.4993 16.2975 16.6254C16.2683 16.6538 16.2386 16.6827 16.2084 16.7122C16.2082 16.7123 16.2081 16.7124 16.2079 16.7126L16.2778 16.7841M16.6903 16.2298L15.4512 17.4968M16.6903 16.2298C16.8719 16.038 16.9512 15.8593 16.9508 15.6934C16.9504 15.5252 16.868 15.3475 16.6789 15.1602L16.6786 15.1599L14.5316 13.0129L14.5316 13.0129L14.5316 13.0129L14.5316 13.0129L14.5315 13.0129L14.5315 13.0128L14.5315 13.0128L14.5315 13.0128L14.5315 13.0128L14.5314 13.0127L14.5314 13.0127L14.5314 13.0127L14.5314 13.0127L14.5313 13.0127L14.5313 13.0126L14.5313 13.0126L14.5313 13.0126L14.5313 13.0126L14.5312 13.0126L14.5312 13.0125L14.5312 13.0125L14.5312 13.0125L14.5312 13.0125L14.5311 13.0124L14.5311 13.0124L14.5311 13.0124L14.5311 13.0124L14.5311 13.0124L14.531 13.0123L14.531 13.0123L14.531 13.0123L14.531 13.0123L14.531 13.0123L14.5309 13.0122L14.5309 13.0122L14.5309 13.0122L14.5309 13.0122L14.5309 13.0122L14.5308 13.0121L14.5308 13.0121L14.5308 13.0121L14.5308 13.0121L14.5308 13.0121L14.5307 13.012L14.5307 13.012L14.5307 13.012L14.5307 13.012L14.5307 13.012L14.5306 13.0119L14.5306 13.0119L14.5306 13.0119L14.5306 13.0119L14.5306 13.0119L14.5305 13.0119L14.5305 13.0118L14.5305 13.0118L14.5305 13.0118L14.5305 13.0118L14.5305 13.0118L14.5304 13.0117L14.5304 13.0117L14.5304 13.0117L14.5304 13.0117L14.5304 13.0117L14.5303 13.0117L14.5303 13.0116L14.5303 13.0116L14.5303 13.0116L14.5303 13.0116L14.5303 13.0116L14.5302 13.0115L14.5302 13.0115L14.5302 13.0115L14.5302 13.0115L14.5302 13.0115L14.5302 13.0115L14.5301 13.0114L14.5301 13.0114L14.5301 13.0114L14.5301 13.0114L14.5301 13.0114L14.5301 13.0114L14.53 13.0113L14.53 13.0113L14.53 13.0113L14.53 13.0113L14.53 13.0113L14.53 13.0113L14.5299 13.0112L14.5299 13.0112L14.5299 13.0112L14.5299 13.0112L14.5299 13.0112L14.5299 13.0112L14.5298 13.0111L14.5298 13.0111L14.5298 13.0111L14.5298 13.0111L14.5298 13.0111L14.5298 13.0111L14.5297 13.0111L14.5297 13.011L14.5297 13.011L14.5297 13.011L14.5297 13.011L14.5297 13.011L14.5296 13.011L14.5296 13.0109L14.5296 13.0109L14.5296 13.0109L14.5296 13.0109L14.5296 13.0109L14.5296 13.0109L14.5295 13.0109L14.5295 13.0108L14.5295 13.0108L14.5295 13.0108L14.5295 13.0108L14.5295 13.0108L14.5295 13.0108L14.5294 13.0108L14.5294 13.0107L14.5294 13.0107L14.5294 13.0107L14.5294 13.0107L14.5294 13.0107L14.5294 13.0107L14.5293 13.0106L14.5293 13.0106L14.5293 13.0106L14.5293 13.0106L14.5293 13.0106L14.5293 13.0106L14.5293 13.0106L14.5292 13.0106L14.5292 13.0105L14.5292 13.0105L14.5292 13.0105L14.5292 13.0105L14.5292 13.0105L14.5292 13.0105L14.5291 13.0105L14.5291 13.0104L14.5291 13.0104L14.5291 13.0104L14.5291 13.0104L14.5291 13.0104L14.5291 13.0104L14.529 13.0104L14.529 13.0103L14.529 13.0103L14.529 13.0103L14.529 13.0103L14.529 13.0103L14.529 13.0103L14.529 13.0103L14.5289 13.0103L14.5289 13.0102L14.5289 13.0102L14.5289 13.0102L14.5289 13.0102L14.5289 13.0102L14.5289 13.0102L14.5288 13.0102L14.5288 13.0101L14.5288 13.0101L14.5288 13.0101L14.5288 13.0101L14.5288 13.0101L14.5288 13.0101L14.5288 13.0101L14.5287 13.0101L14.5287 13.01L14.5287 13.01L14.5287 13.01L14.5287 13.01L14.5287 13.01L14.5287 13.01L14.5287 13.01L14.5286 13.01L14.5286 13.0099L14.5286 13.0099L14.5286 13.0099L14.5286 13.0099L14.5286 13.0099L14.5286 13.0099L14.5286 13.0099L14.5285 13.0099L14.5285 13.0098L14.5285 13.0098L14.5285 13.0098L14.5285 13.0098L14.5285 13.0098L14.5285 13.0098L14.5285 13.0098L14.5285 13.0098L14.5284 13.0098L14.5284 13.0097L14.5284 13.0097L14.5284 13.0097L14.5284 13.0097L14.5284 13.0097L14.5284 13.0097L14.5284 13.0097L14.5283 13.0097L14.5283 13.0096L14.5283 13.0096L14.5283 13.0096L14.5283 13.0096L14.5283 13.0096L14.5283 13.0096L14.5283 13.0096L14.5282 13.0096L14.5282 13.0095L14.5282 13.0095L14.5282 13.0095L14.5282 13.0095L14.5282 13.0095L14.5282 13.0095L14.5282 13.0095L14.5282 13.0095L14.5281 13.0095L14.5281 13.0094L14.5281 13.0094L14.5281 13.0094L14.5281 13.0094L14.5281 13.0094L14.5281 13.0094L14.5281 13.0094L14.5281 13.0094L14.528 13.0094L14.528 13.0093L14.528 13.0093L14.528 13.0093L14.528 13.0093L14.528 13.0093L14.528 13.0093L14.528 13.0093L14.5279 13.0093L14.5279 13.0092L14.5279 13.0092L14.5279 13.0092L14.5279 13.0092L14.5279 13.0092L14.5279 13.0092L14.5279 13.0092L14.5279 13.0092L14.5278 13.0092L14.5278 13.0091L14.5278 13.0091L14.5278 13.0091L14.5278 13.0091L14.5278 13.0091L14.5278 13.0091L14.5278 13.0091L14.5278 13.0091L14.5277 13.0091L14.5277 13.009L14.5277 13.009L14.5277 13.009L14.5277 13.009L14.5277 13.009L14.5277 13.009L14.5277 13.009L14.5276 13.009L14.5276 13.009L14.5276 13.0089L14.5276 13.0089L14.5276 13.0089L14.5276 13.0089L14.5276 13.0089L14.5276 13.0089L14.5276 13.0089L14.5275 13.0089L14.5275 13.0088L14.5275 13.0088L14.5275 13.0088L14.5275 13.0088L14.5275 13.0088L14.5275 13.0088L14.5275 13.0088L14.5275 13.0088L14.5274 13.0088L14.5274 13.0087L14.5274 13.0087L14.5274 13.0087L14.5274 13.0087L14.5274 13.0087L14.5274 13.0087L14.5274 13.0087L14.5274 13.0087L14.5273 13.0087L14.5273 13.0086L14.5273 13.0086L14.5273 13.0086L14.5273 13.0086L14.5273 13.0086L14.5273 13.0086L14.5273 13.0086L14.5272 13.0086L14.5272 13.0085L14.5272 13.0085L14.5272 13.0085L14.5272 13.0085L14.5272 13.0085L14.5272 13.0085L14.5272 13.0085L14.5272 13.0085L14.5271 13.0085L14.5271 13.0084L14.5271 13.0084L14.5271 13.0084L14.5271 13.0084L14.5271 13.0084L14.5271 13.0084L14.5271 13.0084L14.527 13.0084L14.527 13.0083L14.527 13.0083L14.527 13.0083L14.527 13.0083L14.527 13.0083L14.527 13.0083L14.527 13.0083L14.5269 13.0083L14.5269 13.0082L14.5269 13.0082L14.5269 13.0082L14.5269 13.0082L14.5269 13.0082L14.5269 13.0082L14.5269 13.0082L14.5268 13.0082L14.5268 13.0081L14.5268 13.0081L14.5268 13.0081L14.5268 13.0081L14.5268 13.0081L14.5268 13.0081L14.5268 13.0081L14.5267 13.0081L14.5267 13.008L14.5267 13.008L14.5267 13.008L14.5267 13.008L14.5267 13.008L14.5267 13.008L14.5267 13.008L14.5266 13.008L14.5266 13.0079L14.5266 13.0079L14.5266 13.0079L14.5266 13.0079L14.5266 13.0079L14.5266 13.0079L14.5266 13.0079L14.5265 13.0079L14.5265 13.0078L14.5265 13.0078L14.5265 13.0078L14.5265 13.0078L14.5265 13.0078L14.5265 13.0078L14.5264 13.0078L14.5264 13.0077L14.5264 13.0077L14.5264 13.0077L14.5264 13.0077L14.5264 13.0077L14.5264 13.0077L14.5264 13.0077L14.5263 13.0077L14.5263 13.0076L14.5263 13.0076L14.5263 13.0076L14.5263 13.0076L14.5263 13.0076L14.5263 13.0076L14.5262 13.0076L14.5262 13.0075L14.5262 13.0075L14.5262 13.0075L14.5262 13.0075L14.5262 13.0075L14.5262 13.0075L14.5261 13.0075L14.5261 13.0074L14.5261 13.0074L14.5261 13.0074L14.5261 13.0074L14.5261 13.0074L14.5261 13.0074L14.526 13.0074L14.526 13.0073L14.526 13.0073L14.526 13.0073L14.526 13.0073L14.526 13.0073L14.526 13.0073L14.5259 13.0073L14.5259 13.0072L14.5259 13.0072L14.5259 13.0072L14.5259 13.0072L14.5259 13.0072L14.5258 13.0072L14.5258 13.0071L14.5258 13.0071L14.5258 13.0071L14.5258 13.0071L14.5258 13.0071L14.5258 13.0071L14.5257 13.0071L14.5257 13.007L14.5257 13.007L14.5257 13.007L14.5257 13.007L14.5257 13.007L14.5256 13.007L14.5256 13.0069L14.5256 13.0069L14.5256 13.0069L14.5256 13.0069L14.5256 13.0069L14.5255 13.0069L14.5255 13.0068L14.5255 13.0068L14.5255 13.0068L14.5255 13.0068L14.5255 13.0068L14.5254 13.0068L14.5254 13.0067L14.5254 13.0067L14.5254 13.0067L14.5254 13.0067L14.5254 13.0067L14.5253 13.0067L14.5253 13.0066L14.5253 13.0066L14.5253 13.0066L14.5253 13.0066L14.5253 13.0066L14.5252 13.0066L14.5252 13.0065L14.5252 13.0065L14.5252 13.0065L14.5252 13.0065L14.5252 13.0065L14.5251 13.0064L14.5251 13.0064L14.5251 13.0064L14.5251 13.0064L14.5251 13.0064L14.525 13.0064L14.525 13.0063L14.525 13.0063L14.525 13.0063L14.525 13.0063L14.525 13.0063L14.5249 13.0062L14.5249 13.0062L14.5249 13.0062L14.5249 13.0062L14.5249 13.0062L14.5248 13.0062L14.5248 13.0061L14.5248 13.0061L14.5248 13.0061L14.5248 13.0061L14.5247 13.0061L14.5247 13.006L14.5247 13.006L14.5247 13.006L14.5247 13.006L14.5247 13.006L14.5246 13.0059L14.5246 13.0059L14.5246 13.0059L14.5246 13.0059L14.5246 13.0059L14.5245 13.0058L14.5245 13.0058L14.5245 13.0058L14.5245 13.0058L14.5245 13.0058L14.5244 13.0057L14.5244 13.0057L14.5244 13.0057L14.5244 13.0057L14.5243 13.0057L14.5243 13.0056L14.5243 13.0056L14.5243 13.0056L14.5243 13.0056L14.5242 13.0056L14.5242 13.0055L14.5242 13.0055L14.5242 13.0055L14.5242 13.0055L14.5241 13.0054L14.5241 13.0054L14.5241 13.0054L14.5241 13.0054L14.524 13.0054L14.524 13.0053L14.524 13.0053L14.524 13.0053L14.524 13.0053L14.5239 13.0052L14.5239 13.0052L14.5239 13.0052L14.5239 13.0052L14.5238 13.0052L14.5206 13.0019L14.5207 13.0018C14.4072 12.8774 14.2334 12.75 14.0335 12.75C13.8295 12.75 13.6438 12.8849 13.5158 13.0129L12.1832 14.3455L12.1821 14.3467C12.1127 14.4161 11.8851 14.6437 11.5203 14.6437C11.3742 14.6437 11.2343 14.6079 11.0898 14.5357C11.0777 14.5296 11.0663 14.5225 11.0592 14.5181L11.0581 14.5174C11.0495 14.512 11.0458 14.5098 11.043 14.5084L11.0348 14.5043L11.035 14.504C10.9267 14.4367 10.7986 14.3726 10.6573 14.3019L10.6555 14.301C10.5007 14.2236 10.3333 14.1399 10.1692 14.0359C8.90927 13.2391 7.76856 12.2001 6.68835 10.8701L6.68811 10.8699L6.67971 10.8615L6.68027 10.8611C6.08422 10.1043 5.68901 9.46507 5.40784 8.78394L5.40518 8.77748L5.40541 8.7774L5.39957 8.75987L5.39372 8.74233L5.39322 8.74083L5.39323 8.74082C5.3567 8.62513 5.31864 8.47173 5.3386 8.29934C5.35861 8.12648 5.43589 7.94286 5.61356 7.7625C5.62191 7.7514 5.63021 7.74415 5.63441 7.74055L5.63856 7.73708L5.64064 7.73536L5.64383 7.73217L5.64393 7.73228C5.98039 7.43063 6.29024 7.12083 6.61715 6.78613L6.6192 6.78404L6.61923 6.78407C6.69362 6.71224 6.76563 6.6394 6.83913 6.56503C6.87655 6.52717 6.91436 6.48892 6.95307 6.45021C7.15008 6.2532 7.23355 6.07845 7.23355 5.91697C7.23355 5.75548 7.15008 5.58074 6.95307 5.38373L5.88935 4.32001L5.88826 4.31892L5.88827 4.31891C5.82668 4.2554 5.76505 4.1928 5.70359 4.13037L5.70226 4.12901C5.64044 4.06623 5.57879 4.0036 5.51807 3.94092L5.51805 3.9409C5.28056 3.69562 5.05602 3.46724 4.82026 3.24694L4.81779 3.24463L4.81783 3.24459L4.80614 3.2329C4.68767 3.11443 4.51332 2.98944 4.30797 2.98944C4.14333 2.98944 3.96439 3.07016 3.78529 3.23793L2.45774 4.56548C2.1511 4.87212 1.98597 5.22796 1.94897 5.66034M16.6903 16.2298L1.94897 5.66034M16.2778 16.7841C16.0245 17.0257 15.7674 17.279 15.5258 17.5634M16.2778 16.7841C16.3078 16.7549 16.3374 16.7261 16.3666 16.6976C16.4757 16.5916 16.5801 16.4901 16.6823 16.3837L16.2778 16.7841ZM15.5258 17.5634L15.4528 17.4951C15.4522 17.4957 15.4517 17.4963 15.4512 17.4968M15.5258 17.5634L15.4496 17.4987C15.4501 17.4981 15.4506 17.4974 15.4512 17.4968M15.5258 17.5634C15.1323 17.9842 14.6686 18.1829 14.0607 18.1829C14.0023 18.1829 13.94 18.1829 13.8815 18.179C12.7243 18.105 11.6489 17.653 10.8423 17.2673M15.4512 17.4968C15.0777 17.8954 14.6413 18.0829 14.0607 18.0829C14.0016 18.0829 13.9427 18.0829 13.8882 18.0793L13.8879 18.0793C12.7508 18.0065 11.6899 17.5618 10.8856 17.1771M10.8423 17.2673L10.8859 17.1773C10.8858 17.1772 10.8857 17.1772 10.8856 17.1771M10.8423 17.2673L10.8854 17.1771C10.8855 17.1771 10.8855 17.1771 10.8856 17.1771M10.8423 17.2673C8.63691 16.1997 6.70038 14.6839 5.09115 12.763L10.8856 17.1771M10.8856 17.1771C8.69338 16.1158 6.7682 14.6091 5.16796 12.699C3.84502 11.1044 2.96316 9.63349 2.3795 8.05647L2.3794 8.05619C2.02021 7.09449 1.89215 6.35391 1.94897 5.66034M10.8856 17.1771L1.94897 5.66034M16.7532 16.3088V16.2105C16.7614 16.2107 16.7705 16.212 16.7803 16.215C16.7929 16.219 16.8064 16.226 16.8183 16.237C16.7979 16.2609 16.7762 16.2848 16.7532 16.3088Z" fill="white" stroke="white" stroke-width="0.2"/>
<path d="M15.4492 9.771L15.4492 9.77107L15.4528 9.77049C15.7972 9.71463 16.0233 9.38917 15.968 9.04792L15.9679 9.04714C15.754 7.79135 15.1596 6.64649 14.2528 5.7397C13.3461 4.8329 12.2012 4.23859 10.9454 4.02467L10.9454 4.02467L10.9446 4.02454C10.6027 3.96909 10.2826 4.19579 10.2223 4.53433C10.1623 4.87142 10.3837 5.20218 10.7292 5.25837C11.729 5.42633 12.6374 5.89947 13.3633 6.62534C14.089 7.35103 14.5585 8.25953 14.7303 9.25987C14.7816 9.56668 15.0467 9.77957 15.3472 9.77957C15.3819 9.77957 15.4131 9.7756 15.4399 9.77218C15.4431 9.77178 15.4462 9.77138 15.4492 9.771Z" fill="white" stroke="white" stroke-width="0.2"/>
<path d="M10.3695 1.18814L10.3695 1.18814L10.3693 1.18966C10.3137 1.53202 10.541 1.85189 10.8832 1.91201L10.8838 1.91211C12.6787 2.2164 14.3159 3.06758 15.6185 4.36628C16.9209 5.6687 17.7683 7.30581 18.0726 9.10084C18.1238 9.40771 18.3889 9.62066 18.6895 9.62066C18.7242 9.62066 18.7554 9.61669 18.7822 9.61327C18.7853 9.61287 18.7884 9.61247 18.7915 9.61209L18.7915 9.61213L18.794 9.61175C19.1342 9.56048 19.3662 9.23516 19.3063 8.89601C18.956 6.8415 17.9876 4.9719 16.5002 3.48451C15.0129 1.99721 13.1435 1.02889 11.0891 0.678547C10.7484 0.618076 10.4295 0.851514 10.3695 1.18814Z" fill="white" stroke="white" stroke-width="0.2"/>
</g>
<defs>
<clipPath id="clip0_1544_511">
<rect width="20" height="20" fill="white"/>
</clipPath>
</defs>
</svg>
