<svg width="35" height="35" viewBox="0 0 35 35" fill="none" xmlns="http://www.w3.org/2000/svg">
<rect width="34.5455" height="34.5455" rx="6" fill="#50AAC1"/>
<path d="M24.231 14.1991C24.2415 14.3474 24.2415 14.4958 24.2415 14.6455C24.2415 19.2076 20.6768 24.4692 14.1585 24.4692V24.4664C12.233 24.4692 10.3475 23.9318 8.72656 22.9186C9.00655 22.9514 9.28793 22.9678 9.57002 22.9685C11.1657 22.9699 12.7158 22.4482 13.9712 21.4877C12.4548 21.4597 11.125 20.4964 10.6605 19.0901C11.1917 19.1899 11.739 19.1694 12.2604 19.0306C10.6072 18.7052 9.41775 17.29 9.41775 15.6464C9.41775 15.6314 9.41775 15.617 9.41775 15.6027C9.91036 15.87 10.4619 16.0183 11.0261 16.0347C9.46898 15.0209 8.989 13.0027 9.9293 11.4248C11.7285 13.5817 14.3831 14.893 17.2328 15.0318C16.9472 13.8326 17.3373 12.5761 18.258 11.7331C19.6853 10.4259 21.93 10.4929 23.2717 11.8828C24.0654 11.7304 24.826 11.4466 25.5221 11.0446C25.2576 11.8438 24.7039 12.5227 23.9643 12.9541C24.6667 12.8735 25.353 12.6902 25.9993 12.4106C25.5235 13.1052 24.9243 13.7103 24.231 14.1991Z" fill="white"/>
</svg>
