<svg width="1440" height="514" viewBox="0 0 1440 514" fill="none" xmlns="http://www.w3.org/2000/svg">
<g clip-path="url(#clip0_1_32)">
<rect width="1440" height="514" fill="white"/>
<path d="M1263 273C1263 366.336 1338.66 442 1432 442C1525.34 442 1601 366.336 1601 273C1601 179.664 1525.34 104 1432 104C1338.66 104 1263 179.664 1263 273ZM1556.45 273C1556.45 341.731 1500.73 397.448 1432 397.448C1363.27 397.448 1307.55 341.731 1307.55 273C1307.55 204.269 1363.27 148.552 1432 148.552C1500.73 148.552 1556.45 204.269 1556.45 273Z" fill="#3CA0BA" fill-opacity="0.1"/>
<path d="M1548 27C1515.69 27 1483.71 33.363 1453.86 45.7257C1424.01 58.0883 1396.89 76.2086 1374.05 99.0518C1351.21 121.895 1333.09 149.014 1320.73 178.86C1308.36 208.706 1302 240.695 1302 273C1302 305.305 1308.36 337.294 1320.73 367.14C1333.09 396.986 1351.21 424.105 1374.05 446.948C1396.89 469.792 1424.01 487.912 1453.86 500.274C1483.71 512.637 1515.69 519 1548 519L1548 454.15C1524.21 454.15 1500.66 449.464 1478.68 440.36C1456.7 431.257 1436.73 417.913 1419.91 401.092C1403.09 384.271 1389.74 364.301 1380.64 342.323C1371.54 320.345 1366.85 296.789 1366.85 273C1366.85 249.211 1371.54 225.655 1380.64 203.677C1389.74 181.699 1403.09 161.729 1419.91 144.908C1436.73 128.087 1456.7 114.743 1478.68 105.64C1500.66 96.5361 1524.21 91.8505 1548 91.8505L1548 27Z" fill="#3CA0BA" fill-opacity="0.1"/>
<path d="M177 273C177 366.336 101.336 442 8 442C-85.3361 442 -161 366.336 -161 273C-161 179.664 -85.3361 104 8 104C101.336 104 177 179.664 177 273ZM-116.448 273C-116.448 341.731 -60.7309 397.448 8 397.448C76.7309 397.448 132.448 341.731 132.448 273C132.448 204.269 76.7309 148.552 8 148.552C-60.7309 148.552 -116.448 204.269 -116.448 273Z" fill="#3CA0BA" fill-opacity="0.1"/>
<path d="M-108 27C-75.6948 27 -43.7059 33.363 -13.8598 45.7257C15.9862 58.0883 43.1051 76.2086 65.9483 99.0518C88.7915 121.895 106.912 149.014 119.274 178.86C131.637 208.706 138 240.695 138 273C138 305.305 131.637 337.294 119.274 367.14C106.912 396.986 88.7914 424.105 65.9482 446.948C43.105 469.792 15.9862 487.912 -13.8599 500.274C-43.706 512.637 -75.6949 519 -108 519L-108 454.15C-84.2111 454.15 -60.6552 449.464 -38.6771 440.36C-16.699 431.257 3.27073 417.913 20.092 401.092C36.9133 384.271 50.2567 364.301 59.3603 342.323C68.4639 320.345 73.1495 296.789 73.1495 273C73.1495 249.211 68.4639 225.655 59.3603 203.677C50.2567 181.699 36.9134 161.729 20.0921 144.908C3.27078 128.087 -16.699 114.743 -38.6771 105.64C-60.6551 96.5361 -84.2111 91.8505 -108 91.8505L-108 27Z" fill="#3CA0BA" fill-opacity="0.1"/>
</g>
<defs>
<clipPath id="clip0_1_32">
<rect width="1440" height="514" fill="white"/>
</clipPath>
</defs>
</svg>
