<svg width="18" height="18" viewBox="0 0 18 18" fill="none" xmlns="http://www.w3.org/2000/svg">
<path d="M11.9504 2.24158L12.0026 2.25985L12.0542 2.23986L17.3813 0.174874L17.5128 0.150216C17.7037 0.156665 17.85 0.307128 17.85 0.5V15.62C17.85 15.7774 17.7493 15.9055 17.5926 15.9577L17.5921 15.9578L12.0009 17.8414L6.04955 15.7584L5.99735 15.7402L5.94578 15.7601L0.618716 17.8251L0.487208 17.8498C0.29627 17.8433 0.15 17.6929 0.15 17.5V2.38C0.15 2.2226 0.250703 2.09455 0.407434 2.0423L0.407887 2.04215L5.99907 0.158596L11.9504 2.24158ZM7.04955 2.32842L6.85 2.25858V2.47V14.13V14.2364L6.95045 14.2716L10.9504 15.6716L11.15 15.7414V15.53V3.87V3.76358L11.0496 3.72842L7.04955 2.32842ZM1.95214 3.31784L1.85 3.35223V3.46V15.31V15.5288L2.0541 15.4499L5.0541 14.2899L5.15 14.2528V14.15V2.45V2.24123L4.95214 2.30784L1.95214 3.31784ZM16.0479 14.6822L16.15 14.6478V14.54V2.7V2.48118L15.9459 2.56009L12.9459 3.72009L12.85 3.75718V3.86V15.55V15.7588L13.0479 15.6922L16.0479 14.6822Z" fill="white" stroke="white" stroke-width="0.3"/>
</svg>
